<mxfile host="app.diagrams.net" modified="2023-10-22T02:52:49.762Z" agent="Mozilla/5.0 (Macintosh; Intel Mac OS X 10_15_7) AppleWebKit/537.36 (KHTML, like Gecko) Chrome/118.0.0.0 Safari/537.36" etag="Ddqj2CAfJyLHLDweUVqC" version="22.0.6" type="device">
  <diagram name="Page-1" id="2YBvvXClWsGukQMizWep">
    <mxGraphModel dx="909" dy="498" grid="1" gridSize="10" guides="1" tooltips="1" connect="1" arrows="1" fold="1" page="1" pageScale="1" pageWidth="850" pageHeight="1100" math="0" shadow="0">
      <root>
        <mxCell id="0" />
        <mxCell id="1" parent="0" />
        <mxCell id="yYhJYh1AU2dbokNPBHWd-1" value="Actor" style="shape=umlActor;verticalLabelPosition=bottom;verticalAlign=top;html=1;outlineConnect=0;" vertex="1" parent="1">
          <mxGeometry x="180" y="180" width="30" height="60" as="geometry" />
        </mxCell>
        <mxCell id="yYhJYh1AU2dbokNPBHWd-4" value="" style="endArrow=none;dashed=1;html=1;dashPattern=1 3;strokeWidth=2;rounded=0;" edge="1" parent="1">
          <mxGeometry width="50" height="50" relative="1" as="geometry">
            <mxPoint x="195" y="530.952380952381" as="sourcePoint" />
            <mxPoint x="194.52" y="260" as="targetPoint" />
          </mxGeometry>
        </mxCell>
        <mxCell id="yYhJYh1AU2dbokNPBHWd-5" value="battle initiated" style="html=1;verticalAlign=bottom;startArrow=oval;startFill=1;endArrow=block;startSize=8;curved=0;rounded=0;" edge="1" parent="1" target="yYhJYh1AU2dbokNPBHWd-7">
          <mxGeometry width="60" relative="1" as="geometry">
            <mxPoint x="200" y="280" as="sourcePoint" />
            <mxPoint x="330" y="280" as="targetPoint" />
          </mxGeometry>
        </mxCell>
        <mxCell id="yYhJYh1AU2dbokNPBHWd-6" value="Use Case: Interact with Enemy" style="html=1;whiteSpace=wrap;" vertex="1" parent="1">
          <mxGeometry x="380" y="80" width="110" height="50" as="geometry" />
        </mxCell>
        <mxCell id="yYhJYh1AU2dbokNPBHWd-7" value=":Player" style="shape=umlLifeline;perimeter=lifelinePerimeter;whiteSpace=wrap;html=1;container=1;dropTarget=0;collapsible=0;recursiveResize=0;outlineConnect=0;portConstraint=eastwest;newEdgeStyle={&quot;curved&quot;:0,&quot;rounded&quot;:0};" vertex="1" parent="1">
          <mxGeometry x="325" y="210" width="100" height="320" as="geometry" />
        </mxCell>
        <mxCell id="yYhJYh1AU2dbokNPBHWd-8" value="" style="html=1;points=[[0,0,0,0,5],[0,1,0,0,-5],[1,0,0,0,5],[1,1,0,0,-5]];perimeter=orthogonalPerimeter;outlineConnect=0;targetShapes=umlLifeline;portConstraint=eastwest;newEdgeStyle={&quot;curved&quot;:0,&quot;rounded&quot;:0};" vertex="1" parent="yYhJYh1AU2dbokNPBHWd-7">
          <mxGeometry x="45" y="70" width="10" height="220" as="geometry" />
        </mxCell>
        <mxCell id="yYhJYh1AU2dbokNPBHWd-10" value=":Enemy" style="shape=umlLifeline;perimeter=lifelinePerimeter;whiteSpace=wrap;html=1;container=1;dropTarget=0;collapsible=0;recursiveResize=0;outlineConnect=0;portConstraint=eastwest;newEdgeStyle={&quot;curved&quot;:0,&quot;rounded&quot;:0};" vertex="1" parent="1">
          <mxGeometry x="520" y="210" width="100" height="320" as="geometry" />
        </mxCell>
        <mxCell id="yYhJYh1AU2dbokNPBHWd-11" value="" style="html=1;points=[[0,0,0,0,5],[0,1,0,0,-5],[1,0,0,0,5],[1,1,0,0,-5]];perimeter=orthogonalPerimeter;outlineConnect=0;targetShapes=umlLifeline;portConstraint=eastwest;newEdgeStyle={&quot;curved&quot;:0,&quot;rounded&quot;:0};" vertex="1" parent="yYhJYh1AU2dbokNPBHWd-10">
          <mxGeometry x="45" y="70" width="10" height="220" as="geometry" />
        </mxCell>
        <mxCell id="yYhJYh1AU2dbokNPBHWd-12" value="loop" style="shape=umlFrame;whiteSpace=wrap;html=1;pointerEvents=0;" vertex="1" parent="1">
          <mxGeometry x="210" y="300" width="550" height="220" as="geometry" />
        </mxCell>
        <mxCell id="yYhJYh1AU2dbokNPBHWd-13" value="[while player&lt;br&gt;health &amp;gt; 0&lt;br&gt;and enemy&lt;br&gt;health &amp;gt; 0]" style="text;html=1;align=center;verticalAlign=middle;resizable=0;points=[];autosize=1;strokeColor=none;fillColor=none;" vertex="1" parent="1">
          <mxGeometry x="210" y="335" width="90" height="70" as="geometry" />
        </mxCell>
        <mxCell id="yYhJYh1AU2dbokNPBHWd-14" value="attack(Enemy, damage)" style="html=1;verticalAlign=bottom;endArrow=block;curved=0;rounded=0;" edge="1" parent="1" target="yYhJYh1AU2dbokNPBHWd-11">
          <mxGeometry x="-0.0013" width="80" relative="1" as="geometry">
            <mxPoint x="380" y="335" as="sourcePoint" />
            <mxPoint x="460" y="335" as="targetPoint" />
            <mxPoint as="offset" />
          </mxGeometry>
        </mxCell>
        <mxCell id="yYhJYh1AU2dbokNPBHWd-15" value="opt" style="shape=umlFrame;whiteSpace=wrap;html=1;pointerEvents=0;" vertex="1" parent="1">
          <mxGeometry x="295" y="350" width="415" height="110" as="geometry" />
        </mxCell>
        <mxCell id="yYhJYh1AU2dbokNPBHWd-16" value="[enemy&lt;br&gt;health&lt;br&gt;&amp;gt; 0]" style="text;html=1;align=center;verticalAlign=middle;resizable=0;points=[];autosize=1;strokeColor=none;fillColor=none;" vertex="1" parent="1">
          <mxGeometry x="295" y="380" width="60" height="60" as="geometry" />
        </mxCell>
        <mxCell id="yYhJYh1AU2dbokNPBHWd-17" value="attack(Player, damage)" style="html=1;verticalAlign=bottom;endArrow=block;curved=0;rounded=0;" edge="1" parent="1" target="yYhJYh1AU2dbokNPBHWd-8">
          <mxGeometry x="0.4754" width="80" relative="1" as="geometry">
            <mxPoint x="420" y="390" as="sourcePoint" />
            <mxPoint x="405" y="390" as="targetPoint" />
            <Array as="points">
              <mxPoint x="565" y="390" />
            </Array>
            <mxPoint as="offset" />
          </mxGeometry>
        </mxCell>
        <mxCell id="yYhJYh1AU2dbokNPBHWd-19" value="defend" style="html=1;verticalAlign=bottom;endArrow=block;curved=0;rounded=0;" edge="1" parent="1">
          <mxGeometry width="80" relative="1" as="geometry">
            <mxPoint x="380" y="490" as="sourcePoint" />
            <mxPoint x="565" y="490" as="targetPoint" />
            <Array as="points">
              <mxPoint x="500" y="490" />
            </Array>
          </mxGeometry>
        </mxCell>
      </root>
    </mxGraphModel>
  </diagram>
</mxfile>
